<svg xmlns="http://www.w3.org/2000/svg" viewBox="0 0 64 64" role="img" aria-label="Orphdash Admin favicon">
  <defs>
    <linearGradient id="orphdashGradient" x1="0" y1="0" x2="1" y2="1">
      <stop offset="0%" stop-color="#2ec4b6" />
      <stop offset="100%" stop-color="#118ab2" />
    </linearGradient>
  </defs>
  <rect width="64" height="64" rx="14" fill="#0f172a" />
  <path
    d="M32 53c-.6 0-1.2-.2-1.7-.6C22.1 45.9 14 38.9 14 29.8 14 23.1 19.2 18 25.6 18c2.6 0 5.2.9 7.2 2.7L32 21.6l-.8-.9c2-1.8 4.6-2.7 7.2-2.7C44.8 18 50 23.1 50 29.8c0 9.1-8.1 16.1-16.3 22.6-.5.4-1.1.6-1.7.6z"
    fill="url(#orphdashGradient)"
  />
</svg>
